<svg preserveAspectRatio="none" width="100%" height="100%" overflow="visible" style="display: block;" viewBox="0 0 100 100" fill="none" xmlns="http://www.w3.org/2000/svg">
<g id="Ellipse 43006" filter="url(#filter0_i_0_19)">
<path d="M100 50C100 77.6142 77.6142 100 50 100C22.3858 100 0 77.6142 0 50C0 22.3858 22.3858 0 50 0C77.6142 0 100 22.3858 100 50ZM5.95688 50C5.95688 74.3243 25.6757 94.0431 50 94.0431C74.3243 94.0431 94.0431 74.3243 94.0431 50C94.0431 25.6757 74.3243 5.95688 50 5.95688C25.6757 5.95688 5.95688 25.6757 5.95688 50Z" fill="url(#paint0_linear_0_19)"/>
</g>
<defs>
<filter id="filter0_i_0_19" x="0" y="0" width="100" height="104" filterUnits="userSpaceOnUse" color-interpolation-filters="sRGB">
<feFlood flood-opacity="0" result="BackgroundImageFix"/>
<feBlend mode="normal" in="SourceGraphic" in2="BackgroundImageFix" result="shape"/>
<feColorMatrix in="SourceAlpha" type="matrix" values="0 0 0 0 0 0 0 0 0 0 0 0 0 0 0 0 0 0 127 0" result="hardAlpha"/>
<feOffset dy="4"/>
<feGaussianBlur stdDeviation="2"/>
<feComposite in2="hardAlpha" operator="arithmetic" k2="-1" k3="1"/>
<feColorMatrix type="matrix" values="0 0 0 0 0 0 0 0 0 0 0 0 0 0 0 0 0 0 0.45 0"/>
<feBlend mode="normal" in2="shape" result="effect1_innerShadow_0_19"/>
</filter>
<linearGradient id="paint0_linear_0_19" x1="50" y1="0" x2="50" y2="100" gradientUnits="userSpaceOnUse">
<stop stop-color="#7380A9"/>
<stop offset="0.475962" stop-color="#D25DAD"/>
<stop offset="1" stop-color="#9225FF"/>
</linearGradient>
</defs>
</svg>
