<svg preserveAspectRatio="none" width="100%" height="100%" overflow="visible" style="display: block;" viewBox="0 0 20.628 34.3278" fill="none" xmlns="http://www.w3.org/2000/svg">
<path id="Vector" d="M3.45127 34.3278C2.99968 34.3304 2.55201 34.2438 2.13394 34.0731C1.71587 33.9023 1.33562 33.6507 1.01499 33.3327C0.693377 33.0137 0.438103 32.6342 0.263897 32.216C0.0896909 31.7979 0 31.3494 0 30.8964C0 30.4434 0.0896909 29.9949 0.263897 29.5768C0.438103 29.1586 0.693377 28.7791 1.01499 28.4601L12.3385 17.1709L1.01499 5.88169C0.368854 5.23555 0.00585762 4.35919 0.00585762 3.44541C0.00585762 2.99295 0.0949736 2.54493 0.268122 2.12691C0.44127 1.70889 0.695058 1.32907 1.01499 1.00914C1.33493 0.689202 1.71475 0.435416 2.13277 0.262267C2.55078 0.0891193 2.99881 0 3.45127 0C4.36505 0 5.2414 0.362998 5.88754 1.00914L19.613 14.7346C19.9347 15.0536 20.1899 15.4331 20.3641 15.8513C20.5383 16.2694 20.628 16.7179 20.628 17.1709C20.628 17.6239 20.5383 18.0724 20.3641 18.4905C20.1899 18.9087 19.9347 19.2882 19.613 19.6072L5.88754 33.3327C5.56692 33.6507 5.18666 33.9023 4.76859 34.0731C4.35052 34.2438 3.90286 34.3304 3.45127 34.3278Z" fill="var(--fill-0, #C4C4C4)"/>
</svg>
