<svg preserveAspectRatio="none" width="100%" height="100%" overflow="visible" style="display: block;" viewBox="0 0 2578 50" fill="none" xmlns="http://www.w3.org/2000/svg">
<g id="mettal" clip-path="url(#clip0_0_4)">
<g id="Subtract" filter="url(#filter0_i_0_4)">
<path d="M2594 11.2314C2593.19 11.0797 2592.35 11 2591.5 11C2584.04 11 2578 17.0442 2578 24.5C2578 31.9558 2584.04 38 2591.5 38C2592.35 38 2593.19 37.9193 2594 37.7676V50H0V0H2594V11.2314ZM56.5 11C49.0442 11 43 17.0442 43 24.5C43 31.9558 49.0442 38 56.5 38C63.9558 38 70 31.9558 70 24.5C70 17.0442 63.9558 11 56.5 11ZM125.5 11C118.044 11 112 17.0442 112 24.5C112 31.9558 118.044 38 125.5 38C132.956 38 139 31.9558 139 24.5C139 17.0442 132.956 11 125.5 11ZM194.5 11C187.044 11 181 17.0442 181 24.5C181 31.9558 187.044 38 194.5 38C201.956 38 208 31.9558 208 24.5C208 17.0442 201.956 11 194.5 11ZM263.5 11C256.044 11 250 17.0442 250 24.5C250 31.9558 256.044 38 263.5 38C270.956 38 277 31.9558 277 24.5C277 17.0442 270.956 11 263.5 11ZM332.5 11C325.044 11 319 17.0442 319 24.5C319 31.9558 325.044 38 332.5 38C339.956 38 346 31.9558 346 24.5C346 17.0442 339.956 11 332.5 11ZM401.5 11C394.044 11 388 17.0442 388 24.5C388 31.9558 394.044 38 401.5 38C408.956 38 415 31.9558 415 24.5C415 17.0442 408.956 11 401.5 11ZM470.5 11C463.044 11 457 17.0442 457 24.5C457 31.9558 463.044 38 470.5 38C477.956 38 484 31.9558 484 24.5C484 17.0442 477.956 11 470.5 11ZM539.5 11C532.044 11 526 17.0442 526 24.5C526 31.9558 532.044 38 539.5 38C546.956 38 553 31.9558 553 24.5C553 17.0442 546.956 11 539.5 11ZM608.5 11C601.044 11 595 17.0442 595 24.5C595 31.9558 601.044 38 608.5 38C615.956 38 622 31.9558 622 24.5C622 17.0442 615.956 11 608.5 11ZM677.5 11C670.044 11 664 17.0442 664 24.5C664 31.9558 670.044 38 677.5 38C684.956 38 691 31.9558 691 24.5C691 17.0442 684.956 11 677.5 11ZM746.5 11C739.044 11 733 17.0442 733 24.5C733 31.9558 739.044 38 746.5 38C753.956 38 760 31.9558 760 24.5C760 17.0442 753.956 11 746.5 11ZM815.5 11C808.044 11 802 17.0442 802 24.5C802 31.9558 808.044 38 815.5 38C822.956 38 829 31.9558 829 24.5C829 17.0442 822.956 11 815.5 11ZM884.5 11C877.044 11 871 17.0442 871 24.5C871 31.9558 877.044 38 884.5 38C891.956 38 898 31.9558 898 24.5C898 17.0442 891.956 11 884.5 11ZM953.5 11C946.044 11 940 17.0442 940 24.5C940 31.9558 946.044 38 953.5 38C960.956 38 967 31.9558 967 24.5C967 17.0442 960.956 11 953.5 11ZM1022.5 11C1015.04 11 1009 17.0442 1009 24.5C1009 31.9558 1015.04 38 1022.5 38C1029.96 38 1036 31.9558 1036 24.5C1036 17.0442 1029.96 11 1022.5 11ZM1091.5 11C1084.04 11 1078 17.0442 1078 24.5C1078 31.9558 1084.04 38 1091.5 38C1098.96 38 1105 31.9558 1105 24.5C1105 17.0442 1098.96 11 1091.5 11ZM1151.5 11C1144.04 11 1138 17.0442 1138 24.5C1138 31.9558 1144.04 38 1151.5 38C1158.96 38 1165 31.9558 1165 24.5C1165 17.0442 1158.96 11 1151.5 11ZM1220.5 11C1213.04 11 1207 17.0442 1207 24.5C1207 31.9558 1213.04 38 1220.5 38C1227.96 38 1234 31.9558 1234 24.5C1234 17.0442 1227.96 11 1220.5 11ZM1289.5 11C1282.04 11 1276 17.0442 1276 24.5C1276 31.9558 1282.04 38 1289.5 38C1296.96 38 1303 31.9558 1303 24.5C1303 17.0442 1296.96 11 1289.5 11ZM1358.5 11C1351.04 11 1345 17.0442 1345 24.5C1345 31.9558 1351.04 38 1358.5 38C1365.96 38 1372 31.9558 1372 24.5C1372 17.0442 1365.96 11 1358.5 11ZM1427.5 11C1420.04 11 1414 17.0442 1414 24.5C1414 31.9558 1420.04 38 1427.5 38C1434.96 38 1441 31.9558 1441 24.5C1441 17.0442 1434.96 11 1427.5 11ZM1496.5 11C1489.04 11 1483 17.0442 1483 24.5C1483 31.9558 1489.04 38 1496.5 38C1503.96 38 1510 31.9558 1510 24.5C1510 17.0442 1503.96 11 1496.5 11ZM1565.5 11C1558.04 11 1552 17.0442 1552 24.5C1552 31.9558 1558.04 38 1565.5 38C1572.96 38 1579 31.9558 1579 24.5C1579 17.0442 1572.96 11 1565.5 11ZM1634.5 11C1627.04 11 1621 17.0442 1621 24.5C1621 31.9558 1627.04 38 1634.5 38C1641.96 38 1648 31.9558 1648 24.5C1648 17.0442 1641.96 11 1634.5 11ZM1703.5 11C1696.04 11 1690 17.0442 1690 24.5C1690 31.9558 1696.04 38 1703.5 38C1710.96 38 1717 31.9558 1717 24.5C1717 17.0442 1710.96 11 1703.5 11ZM1772.5 11C1765.04 11 1759 17.0442 1759 24.5C1759 31.9558 1765.04 38 1772.5 38C1779.96 38 1786 31.9558 1786 24.5C1786 17.0442 1779.96 11 1772.5 11ZM1841.5 11C1834.04 11 1828 17.0442 1828 24.5C1828 31.9558 1834.04 38 1841.5 38C1848.96 38 1855 31.9558 1855 24.5C1855 17.0442 1848.96 11 1841.5 11ZM1910.5 11C1903.04 11 1897 17.0442 1897 24.5C1897 31.9558 1903.04 38 1910.5 38C1917.96 38 1924 31.9558 1924 24.5C1924 17.0442 1917.96 11 1910.5 11ZM1979.5 11C1972.04 11 1966 17.0442 1966 24.5C1966 31.9558 1972.04 38 1979.5 38C1986.96 38 1993 31.9558 1993 24.5C1993 17.0442 1986.96 11 1979.5 11ZM2048.5 11C2041.04 11 2035 17.0442 2035 24.5C2035 31.9558 2041.04 38 2048.5 38C2055.96 38 2062 31.9558 2062 24.5C2062 17.0442 2055.96 11 2048.5 11ZM2117.5 11C2110.04 11 2104 17.0442 2104 24.5C2104 31.9558 2110.04 38 2117.5 38C2124.96 38 2131 31.9558 2131 24.5C2131 17.0442 2124.96 11 2117.5 11ZM2186.5 11C2179.04 11 2173 17.0442 2173 24.5C2173 31.9558 2179.04 38 2186.5 38C2193.96 38 2200 31.9558 2200 24.5C2200 17.0442 2193.96 11 2186.5 11ZM2246.5 11C2239.04 11 2233 17.0442 2233 24.5C2233 31.9558 2239.04 38 2246.5 38C2253.96 38 2260 31.9558 2260 24.5C2260 17.0442 2253.96 11 2246.5 11ZM2315.5 11C2308.04 11 2302 17.0442 2302 24.5C2302 31.9558 2308.04 38 2315.5 38C2322.96 38 2329 31.9558 2329 24.5C2329 17.0442 2322.96 11 2315.5 11ZM2384.5 11C2377.04 11 2371 17.0442 2371 24.5C2371 31.9558 2377.04 38 2384.5 38C2391.96 38 2398 31.9558 2398 24.5C2398 17.0442 2391.96 11 2384.5 11ZM2453.5 11C2446.04 11 2440 17.0442 2440 24.5C2440 31.9558 2446.04 38 2453.5 38C2460.96 38 2467 31.9558 2467 24.5C2467 17.0442 2460.96 11 2453.5 11ZM2522.5 11C2515.04 11 2509 17.0442 2509 24.5C2509 31.9558 2515.04 38 2522.5 38C2529.96 38 2536 31.9558 2536 24.5C2536 17.0442 2529.96 11 2522.5 11Z" fill="url(#paint0_linear_0_4)"/>
</g>
<path id="Vector" fill-rule="evenodd" clip-rule="evenodd" d="M553.829 0.421592C688.691 0.472897 832.565 0.0525961 943.333 0.532892C1060.24 1.03981 1138.52 1.44982 1138 2.33333C1137.97 2.38384 1137.55 3.06062 1137 3.11111C1127.19 4.00837 990.436 4.39121 893.814 5.06131C787.219 5.80056 713.258 6.9262 553.829 6.99608C391.335 7.06729 267.169 6.1552 162.19 5.38196C67.9202 4.68759 2.49999 3.11111 1.5 3.11111C0.499999 2.72222 0 2.33333 0 1.55556C1.5 1.16667 13.09 0.679459 113.469 0.217191C236.364 -0.348767 401.095 0.363488 553.829 0.421592Z" fill="var(--fill-0, #333333)"/>
<path id="Vector_2" fill-rule="evenodd" clip-rule="evenodd" d="M1838.8 0.421592C2009.45 0.472897 2191.51 0.0525961 2331.67 0.532892C2479.6 1.03981 2578.65 1.44982 2578 2.33333C2577.96 2.38384 2577.43 3.06062 2576.73 3.11111C2564.32 4.00837 2391.28 4.39121 2269.01 5.06131C2134.13 5.80056 2040.54 6.9262 1838.8 6.99608C1633.19 7.06729 1476.07 6.1552 1343.23 5.38196C1223.94 4.68759 1141.16 3.11111 1139.9 3.11111C1138.63 2.72222 1138 2.33333 1138 1.55556C1139.9 1.16667 1154.56 0.679459 1281.58 0.217191C1437.09 -0.348767 1645.54 0.363488 1838.8 0.421592Z" fill="var(--fill-0, #333333)"/>
</g>
<defs>
<filter id="filter0_i_0_4" x="0" y="-4" width="2594" height="54" filterUnits="userSpaceOnUse" color-interpolation-filters="sRGB">
<feFlood flood-opacity="0" result="BackgroundImageFix"/>
<feBlend mode="normal" in="SourceGraphic" in2="BackgroundImageFix" result="shape"/>
<feColorMatrix in="SourceAlpha" type="matrix" values="0 0 0 0 0 0 0 0 0 0 0 0 0 0 0 0 0 0 127 0" result="hardAlpha"/>
<feOffset dy="-6"/>
<feGaussianBlur stdDeviation="2"/>
<feComposite in2="hardAlpha" operator="arithmetic" k2="-1" k3="1"/>
<feColorMatrix type="matrix" values="0 0 0 0 0 0 0 0 0 0 0 0 0 0 0 0 0 0 0.55 0"/>
<feBlend mode="normal" in2="shape" result="effect1_innerShadow_0_4"/>
</filter>
<linearGradient id="paint0_linear_0_4" x1="569" y1="0" x2="569" y2="50" gradientUnits="userSpaceOnUse">
<stop stop-color="#606091"/>
<stop offset="1" stop-color="#A2CCDB"/>
</linearGradient>
<clipPath id="clip0_0_4">
<rect width="2578" height="50" fill="white"/>
</clipPath>
</defs>
</svg>
