<svg preserveAspectRatio="none" width="100%" height="100%" overflow="visible" style="display: block;" viewBox="0 0 383.088 26.2875" fill="none" xmlns="http://www.w3.org/2000/svg">
<g id="DecoFilligree_top">
<path id="Vector" d="M177.661 16.6604C177.993 16.8876 177.415 16.4811 177.661 16.6604Z" fill="url(#paint0_linear_0_4)" fill-opacity="0.2"/>
<path id="Vector_2" d="M371.273 22.5689L359.447 22.4029L335.794 22.0774C326.902 21.9823 318.012 21.8946 309.122 21.8163C309.716 21.7221 310.257 21.6288 310.72 21.5439C316.785 20.435 325.247 17.5194 329.975 20.9312C320.541 14.2737 299.863 26.4517 294.176 18.4335C293.926 20.0759 294.777 21.1056 296.232 21.7165C293.651 21.6978 291.07 21.6726 288.49 21.6568C287.452 21.6474 286.411 21.6456 285.373 21.6381C288.994 20.0722 291.727 17.4103 296.586 17.6957C301.828 18.0053 309.238 20.435 315.114 18.4325C312.346 19.0975 308.337 18.0912 306.196 16.8059C305.201 16.2081 303.896 15.1327 302.19 15.2726C300.511 15.4116 300.801 16.569 301.461 17.4812C292.137 15.2652 286.339 19.8194 281.564 21.6139C279.619 21.6018 277.673 21.5905 275.726 21.5794L275.638 21.5672C275.647 21.5719 275.655 21.5747 275.662 21.5784C274.084 21.571 272.51 21.5579 270.931 21.5505C272.312 20.9358 273.475 20.0722 274.356 18.9147C275.281 17.7022 278.7 15.212 280.758 17.1678C279.109 16.5215 275.227 17.4103 275.215 18.9119C275.199 20.9106 278.87 20.8062 280.734 20.3585C283.208 19.7653 284.866 18.0455 286.208 16.4851C287.499 14.9882 289.602 12.6481 289.668 10.9478C285.97 13.5416 281.267 14.0573 276.424 14.6944C274.592 14.935 272.538 15.1234 271.299 16.2762C270.362 17.1473 270.44 19.5928 272.778 18.8056C271.916 19.8241 270.22 20.6877 268.303 21.3173C267.899 21.3956 267.515 21.4693 267.155 21.5281C265.926 21.5215 264.699 21.5122 263.47 21.5075C263.205 21.4506 262.93 21.3835 262.638 21.3014C261.241 20.9041 258.87 19.174 257.518 19.659C258.527 20.1887 259.245 20.9666 260.28 21.4936C253.913 21.4684 247.547 21.4451 241.183 21.4124L238.789 21.4096C239.868 20.5506 240.543 19.3242 240.372 18.4325C239.168 19.7056 237.843 20.8649 235.975 21.405L225.125 21.3863C222.253 20.3193 223.749 16.8031 226.987 15.9973C224.187 16.3806 223.126 17.4504 221.922 19.1208C221.017 20.3734 219.914 20.9731 218.6 21.3751L209.409 21.3592C214.146 20.9367 217.38 18.8131 221.152 16.5802C221.772 16.2585 222.372 15.9628 222.942 15.7166C223.431 15.5067 224.36 15.2204 225.514 14.9312C230.063 14.0601 238.164 13.577 236.183 17.3935C236.101 17.5045 236.2 17.3861 236.101 17.5045C234.443 14.5918 228.506 14.7326 227.987 17.4439C227.442 20.2923 233.489 20.421 235.65 19.2001C236.546 18.6946 237.176 18.2087 237.608 17.7405C239.211 16.3153 238.665 14.3884 236.081 13.0416C233.766 11.8357 231.149 11.624 228.647 12.0465C236.351 9.21023 243.184 11.1315 249.725 14.7886C248.922 14.4976 247.591 13.9547 245.494 13.4343C244.096 12.8635 242.782 12.3851 238.853 12.1827L245.056 14.0611C242.556 14.3633 240.57 16.5 243.703 18.3047C250.134 22.0075 256.601 17.2116 264.701 18.9072C260.307 16.7145 260.219 13.3951 256.457 10.8937C255.805 10.4208 254.617 9.69055 254.101 9.49655C251.857 8.65528 249.458 9.85004 249.194 11.4552C249.026 12.4671 249.713 13.2133 250.612 13.8204C244.107 9.87987 235.796 8.77092 229.718 11.1875C230.96 10.0897 231.697 9.2522 233.051 8.28408C233.051 8.28408 235.889 8.83809 238.621 7.77764C243.217 5.99623 243.244 2.82417 246.089 0.00282752C241.702 1.55293 235.285 -0.658431 232.247 2.62925C229.771 5.31069 231.318 8.34469 228.842 11.0401L226.799 12.4774C226.329 12.6163 225.867 12.7749 225.417 12.953C224.441 13.341 223.532 13.813 222.648 14.3176C221.705 14.727 219.59 14.1879 219.032 13.4539C218.343 12.5455 219.764 12.4438 223.102 11.652C225.065 11.1875 225.669 11.07 227.55 8.15722C224.31 9.31001 220.516 7.47172 217.77 9.89947C214.828 12.4988 217.69 14.3791 221.207 14.9891C220.975 15.2288 220.655 15.4806 220.295 15.7278C219.972 15.9236 219.651 16.1186 219.329 16.3116C218.05 16.9831 216.455 17.5054 215.07 17.4616C214.52 17.4448 214.061 17.3674 213.642 17.2611C213.652 17.1016 213.649 16.9524 213.632 16.8367C213.519 15.9031 212.979 15.1206 212.268 14.4575C211.557 13.7971 210.688 13.272 209.764 12.843C207.917 11.9859 205.904 11.4337 203.868 11.0364C199.775 10.2828 195.558 10.1009 191.465 10.3901C195.544 10.6932 199.559 11.2397 203.191 12.2797C204.994 12.7898 206.722 13.4203 208.096 14.2252C208.775 14.6291 209.373 15.0656 209.791 15.5263C209.99 15.7417 210.143 15.9702 210.25 16.1969C209.151 16.0215 207.706 16.0673 205.439 16.6409C207.112 16.8097 208.039 17.207 208.445 17.7246C208.109 17.7619 207.762 17.7964 207.404 17.8235C205.469 17.9671 203.339 18.0473 201.187 18.3113C199.036 18.5677 196.834 19.0453 194.815 19.8241C193.603 20.2913 192.5 20.8873 191.518 21.557C190.546 20.8575 189.433 20.2401 188.201 19.769C186.161 18.9837 183.945 18.5267 181.793 18.2842C179.643 18.0352 177.518 17.9587 175.582 17.8169C175.263 17.7936 174.949 17.7638 174.644 17.7312C175.047 17.2098 175.975 16.8115 177.654 16.6409C175.248 16.0327 173.773 16.0216 172.65 16.2342C172.98 15.5291 173.792 14.8277 174.816 14.229C176.191 13.4203 177.918 12.7898 179.725 12.2787C183.361 11.2369 187.38 10.6894 191.464 10.3891C187.366 10.1009 183.147 10.2828 179.05 11.0411C177.01 11.4384 174.999 11.9933 173.15 12.8542C172.23 13.2842 171.357 13.8083 170.651 14.4733C169.943 15.1271 169.406 15.9479 169.302 16.8349C169.283 16.9692 169.284 17.1286 169.298 17.2965C168.919 17.3805 168.505 17.4439 168.022 17.4588C166.637 17.5026 165.04 16.9803 163.762 16.3088C163.439 16.1167 163.117 15.9208 162.797 15.725C162.435 15.4778 162.116 15.226 161.884 14.9863C165.402 14.3763 168.264 12.496 165.322 9.89666C162.574 7.4689 158.782 9.30722 155.541 8.15443C157.423 11.0672 158.025 11.1847 159.988 11.6492C163.327 12.441 164.747 12.5427 164.058 13.4511C163.502 14.1851 161.387 14.7242 160.443 14.3147C159.559 13.8111 158.65 13.3382 157.674 12.9503C157.223 12.7721 156.762 12.6135 156.291 12.4746L154.249 11.0373C151.773 8.34191 153.319 5.30791 150.845 2.62646C147.807 -0.66122 141.39 1.55015 137.003 3.8147e-05C139.85 2.82045 139.876 5.99248 144.472 7.77482C147.206 8.83528 150.043 8.28127 150.043 8.28127C151.396 9.24938 152.132 10.086 153.374 11.1847C147.297 8.76813 138.985 9.87708 132.481 13.8176C133.379 13.2105 134.066 12.4643 133.899 11.4524C133.634 9.84722 131.235 8.65249 128.991 9.49376C128.473 9.68776 127.287 10.418 126.635 10.8909C122.872 13.3923 122.785 16.7117 118.392 18.9045C126.491 17.2089 132.958 22.0047 139.389 18.302C142.524 16.4972 140.537 14.3604 138.038 14.0583L144.242 12.1798C140.311 12.3813 138.998 12.8598 137.599 13.4315C135.503 13.9529 134.172 14.4948 133.368 14.7857C139.911 11.1287 146.743 9.20741 154.447 12.0437C151.946 11.6212 149.328 11.832 147.013 13.0389C144.43 14.3856 143.884 16.3125 145.487 17.7377C145.918 18.2049 146.549 18.6918 147.444 19.1973C149.605 20.4173 155.652 20.2895 155.107 17.4411C154.589 14.7307 148.65 14.5899 146.992 17.5017C146.894 17.3833 146.992 17.5017 146.91 17.3907C144.929 13.5742 153.028 14.0573 157.58 14.9285C158.732 15.2176 159.661 15.5039 160.151 15.7138C160.72 15.959 161.321 16.2547 161.94 16.5774C165.712 18.8093 168.944 20.934 173.683 21.3565L164.491 21.3723C163.177 20.9703 162.073 20.3716 161.17 19.118C159.966 17.4476 158.905 16.3778 156.105 15.9945C159.343 16.8003 160.839 20.3165 157.968 21.3835L147.118 21.4021C145.251 20.8621 143.927 19.7038 142.723 18.4297C142.55 19.3214 143.227 20.5478 144.306 21.4068L141.914 21.4096C135.548 21.4423 129.181 21.4656 122.816 21.4907C123.851 20.9638 124.568 20.186 125.578 19.6562C124.228 19.1712 121.857 20.9013 120.46 21.2986C120.167 21.3816 119.893 21.4488 119.626 21.5048C118.399 21.5094 117.17 21.5187 115.942 21.5253C115.581 21.4656 115.199 21.3919 114.795 21.3145C112.879 20.684 111.182 19.8203 110.32 18.8028C112.658 19.59 112.737 17.1445 111.8 16.2734C110.56 15.1206 108.506 14.9331 106.675 14.6916C101.833 14.0555 97.1313 13.5388 93.431 10.945C93.4985 12.6453 95.6008 14.9853 96.8894 16.4823C98.2323 18.0417 99.8903 19.7625 102.365 20.3557C104.23 20.8034 107.901 20.9078 107.885 18.9091C107.871 17.4075 103.991 16.5187 102.34 17.165C104.398 15.2101 107.817 17.7004 108.742 18.9119C109.625 20.0694 110.786 20.933 112.168 21.5476C110.591 21.5551 109.015 21.5682 107.437 21.5756C107.445 21.5728 107.454 21.5691 107.462 21.5644L107.373 21.5766C105.427 21.5878 103.482 21.598 101.537 21.6111C96.7618 19.8166 90.9637 15.2614 81.6383 17.4784C82.2981 16.5662 82.5883 15.4088 80.9097 15.2698C79.2033 15.129 77.8985 16.2053 76.9031 16.8031C74.7627 18.0893 70.7517 19.0947 67.9838 18.4297C73.8582 20.4322 81.2704 18.0025 86.5099 17.6929C91.3713 17.4066 94.1039 20.0693 97.7236 21.6353C96.6856 21.6428 95.6477 21.6447 94.6083 21.654C92.0281 21.6698 89.4464 21.695 86.8662 21.7137C88.3205 21.1018 89.1722 20.0731 88.9216 18.4307C83.2349 26.4489 62.5552 14.2718 53.1213 20.9283C57.8507 17.5166 66.314 20.4322 72.379 21.5411C72.8422 21.626 73.3817 21.7193 73.9755 21.8135C65.0855 21.8918 56.1955 21.9795 47.3056 22.0746L23.6528 22.4001L11.8264 22.5661L0 22.7835L11.8264 23.0026L23.6528 23.1668L47.3056 23.4923C63.0741 23.663 78.8412 23.8178 94.6097 23.9148C110.378 24.0491 126.147 24.0789 141.914 24.1573L184.565 24.2291L178.951 22.6631C177.657 22.0877 176.222 21.1522 175.313 20.185C177.342 20.3902 179.234 20.5264 181.033 20.7968C182.891 21.0739 184.643 21.4385 186.122 22.0438C187.608 22.6352 188.805 23.4485 189.696 24.4324L191.374 26.2875L193.184 24.4809C194.156 23.5091 195.397 22.6995 196.894 22.097C198.391 21.4898 200.128 21.1056 201.978 20.8239C203.793 20.5394 205.711 20.4005 207.773 20.1869C206.866 21.1531 205.432 22.0886 204.136 22.6631L198.523 24.2291L241.175 24.1573C256.944 24.0789 272.711 24.0491 288.479 23.9148C304.248 23.8178 320.016 23.663 335.784 23.4923L359.436 23.1668L371.263 23.0026L383.088 22.7835L371.273 22.5689Z" fill="url(#paint1_linear_0_4)" fill-opacity="0.2"/>
<path id="Vector_3" d="M205.446 16.6604C205.692 16.4811 205.116 16.8876 205.446 16.6604Z" fill="url(#paint2_linear_0_4)" fill-opacity="0.2"/>
</g>
<defs>
<linearGradient id="paint0_linear_0_4" x1="177.598" y1="16.6723" x2="177.766" y2="16.6723" gradientUnits="userSpaceOnUse">
<stop stop-color="#666666" stop-opacity="0"/>
<stop offset="0.155051" stop-color="#E7E7E7"/>
<stop offset="0.852137" stop-color="white"/>
<stop offset="1" stop-color="#666666" stop-opacity="0"/>
</linearGradient>
<linearGradient id="paint1_linear_0_4" x1="0" y1="13.1438" x2="379.901" y2="13.1438" gradientUnits="userSpaceOnUse">
<stop stop-color="#666666" stop-opacity="0"/>
<stop offset="0.155051" stop-color="#E7E7E7"/>
<stop offset="0.852137" stop-color="white"/>
<stop offset="1" stop-color="#666666" stop-opacity="0"/>
</linearGradient>
<linearGradient id="paint2_linear_0_4" x1="205.341" y1="16.6723" x2="205.508" y2="16.6723" gradientUnits="userSpaceOnUse">
<stop stop-color="#666666" stop-opacity="0"/>
<stop offset="0.155051" stop-color="#E7E7E7"/>
<stop offset="0.852137" stop-color="white"/>
<stop offset="1" stop-color="#666666" stop-opacity="0"/>
</linearGradient>
</defs>
</svg>
