<svg preserveAspectRatio="none" width="100%" height="100%" overflow="visible" style="display: block;" viewBox="0 0 23.5918 1.96694" fill="none" xmlns="http://www.w3.org/2000/svg">
<g id="Group">
<path id="Vector" d="M18.5282 0.726712C18.3102 0.723391 18.0922 0.717904 17.8741 0.71516C17.8954 0.79472 17.9085 0.885976 17.9085 0.984451C17.9085 1.09 17.8939 1.18804 17.8699 1.27107C18.0907 1.26832 18.3115 1.26298 18.5324 1.25937C18.5092 1.17967 18.4953 1.08567 18.4953 0.984451C18.4954 0.890308 18.5079 0.803095 18.5282 0.726712Z" fill="var(--fill-0, white)"/>
<path id="Vector_2" d="M23.5918 1.11852C23.5848 1.07607 23.5804 1.03087 23.5804 0.983225C23.5804 0.942073 23.5841 0.902943 23.5892 0.865113L23.4414 0.858904C23.447 0.898467 23.4511 0.939763 23.4511 0.983225C23.4511 1.03318 23.4462 1.0804 23.4391 1.12516L23.5918 1.11852Z" fill="var(--fill-0, white)"/>
<path id="Vector_3" d="M19.4994 0.744024C19.3129 0.739404 19.1263 0.737238 18.9397 0.733628C18.9588 0.80799 18.9707 0.892603 18.9707 0.983714C18.9707 1.08204 18.9574 1.17287 18.9354 1.25142C19.1248 1.24766 19.3143 1.2455 19.5038 1.24073C19.4828 1.16565 19.4698 1.07829 19.4698 0.983714C19.4699 0.896502 19.4812 0.815498 19.4994 0.744024Z" fill="var(--fill-0, white)"/>
<path id="Vector_4" d="M21.8648 0.80435C21.7575 0.801174 21.6502 0.797564 21.5429 0.794387C21.5549 0.852433 21.5621 0.91611 21.5621 0.983685C21.5621 1.05848 21.5531 1.12808 21.5386 1.1906C21.6488 1.18742 21.7589 1.18367 21.8692 1.1802C21.8558 1.12071 21.8473 1.05458 21.8473 0.983685C21.8473 0.919864 21.8537 0.859508 21.8648 0.80435Z" fill="var(--fill-0, white)"/>
<path id="Vector_5" d="M22.5013 0.824474C22.4154 0.821731 22.3296 0.819131 22.2437 0.816532C22.2534 0.868369 22.2589 0.924826 22.2589 0.984027C22.2589 1.05016 22.252 1.11253 22.2401 1.16914C22.3281 1.16639 22.4163 1.16365 22.5044 1.16076C22.4932 1.10662 22.4867 1.04713 22.4867 0.984027C22.4868 0.92757 22.4921 0.874 22.5013 0.824474Z" fill="var(--fill-0, white)"/>
<path id="Vector_6" d="M17.4481 0.70843C17.1958 0.705398 16.9435 0.702077 16.6912 0.698612C16.714 0.782503 16.7279 0.879102 16.7279 0.983497C16.7279 1.09497 16.7127 1.19835 16.6868 1.28585C16.942 1.28239 17.1972 1.27878 17.4523 1.27574C17.4272 1.19128 17.4122 1.09136 17.4122 0.983497C17.4123 0.882712 17.4259 0.789434 17.4481 0.70843Z" fill="var(--fill-0, white)"/>
<path id="Vector_7" d="M23.0741 0.842797L22.9374 0.837022C22.9161 0.836155 22.8948 0.835722 22.8734 0.835C22.8812 0.88135 22.8861 0.930732 22.8861 0.982857C22.8861 1.04148 22.8806 1.09721 22.8709 1.14818C22.893 1.14746 22.9151 1.14689 22.9373 1.14616L23.0764 1.1401C23.0673 1.09144 23.062 1.03845 23.062 0.982712C23.0623 0.933474 23.0669 0.886837 23.0741 0.842797Z" fill="var(--fill-0, white)"/>
<path id="Vector_8" d="M16.2469 0.693669L15.3789 0.689338C15.4021 0.77655 15.4164 0.87618 15.4164 0.983896C15.4164 1.09869 15.4008 1.20496 15.3748 1.29593L16.2513 1.29145C16.2247 1.20279 16.209 1.09739 16.209 0.983896C16.2089 0.87748 16.2233 0.77886 16.2469 0.693669Z" fill="var(--fill-0, white)"/>
<path id="Vector_9" d="M13.4244 0.678969L13.3355 0.678536C13.1672 0.460794 12.7531 4.06429e-05 12.2603 4.06429e-05C11.6292 4.06429e-05 11.1252 0.757518 11.1042 0.789717L10.9771 0.983347L11.1042 1.17712C11.112 1.18896 11.1864 1.30072 11.3085 1.43601C11.3214 1.42735 11.3344 1.41854 11.3472 1.40973C11.3472 1.40973 11.4754 1.36613 11.6037 1.20874C11.5953 1.21842 11.5726 1.24455 11.6064 1.20556C11.5183 1.13034 11.4408 1.05164 11.3806 0.982913C11.5626 0.774556 11.8899 0.472923 12.2604 0.472923C12.6294 0.472923 12.9576 0.77499 13.1402 0.983491C12.9743 1.17351 12.6875 1.43775 12.3576 1.48395C12.3436 1.54214 12.0801 1.71743 11.9528 1.82861C12.0344 1.85431 12.1729 1.9668 12.2604 1.9668C12.7401 1.9668 13.1457 1.52958 13.3223 1.30548L13.4288 1.30505C13.4025 1.21091 13.3864 1.10146 13.3864 0.983347C13.3863 0.87231 13.4009 0.769358 13.4244 0.678969Z" fill="var(--fill-0, white)"/>
<path id="Vector_10" d="M20.3728 0.763423C20.215 0.759669 20.0574 0.755337 19.8996 0.752016C19.9164 0.821324 19.9269 0.899151 19.9269 0.982898C19.9269 1.07372 19.9148 1.15776 19.8952 1.23096C20.0558 1.22764 20.2165 1.22331 20.3771 1.21941C20.3587 1.14924 20.3472 1.06924 20.3472 0.982754C20.3472 0.903339 20.357 0.82941 20.3728 0.763423Z" fill="var(--fill-0, white)"/>
<path id="Vector_11" d="M21.1587 0.783401C21.0272 0.779791 20.8957 0.777482 20.7642 0.774161C20.7787 0.837693 20.7874 0.908445 20.7874 0.983962C20.7874 1.0667 20.7769 1.14337 20.7599 1.21138C20.8943 1.20806 21.0286 1.20546 21.163 1.2017C21.1468 1.13658 21.1368 1.06309 21.1368 0.983962C21.1368 0.912055 21.1452 0.844479 21.1587 0.783401Z" fill="var(--fill-0, white)"/>
<path id="Vector_12" d="M14.9099 0.686892L13.9218 0.681983C13.9449 0.771794 13.9591 0.873735 13.9591 0.983761C13.9591 1.10086 13.9433 1.2093 13.9173 1.30301L14.9142 1.29796C14.8877 1.2067 14.8718 1.09956 14.8718 0.983761C14.8719 0.875179 14.8864 0.774537 14.9099 0.686892Z" fill="var(--fill-0, white)"/>
<path id="Vector_13" d="M1.34901 0.814694C1.263 0.817293 1.17689 0.819892 1.09089 0.82278C1.10024 0.872739 1.10563 0.927175 1.10563 0.984354C1.10563 1.04832 1.09892 1.10853 1.08743 1.16325C1.17598 1.16614 1.26442 1.16874 1.35287 1.17148C1.34067 1.11431 1.33345 1.05135 1.33345 0.984354C1.33345 0.924432 1.33904 0.867108 1.34901 0.814694Z" fill="var(--fill-0, white)"/>
<path id="Vector_14" d="M12.5466 0.983058L12.4195 0.789429C12.4121 0.778166 12.3446 0.678247 12.2347 0.553637C12.1564 0.5649 12.1672 0.546129 12.0908 0.596666C12.0593 0.63132 11.9415 0.714923 11.911 0.755641C12.0022 0.83188 12.0815 0.912451 12.1431 0.983058C11.9608 1.19141 11.6326 1.49363 11.2634 1.49363C10.8928 1.49363 10.5655 1.19214 10.3835 0.983635C10.557 0.785386 10.8628 0.506133 11.2097 0.478698C11.2203 0.46527 11.2315 0.45343 11.2431 0.443034C11.2539 0.433648 11.2646 0.423685 11.2753 0.4143C11.2753 0.4143 11.5262 0.158439 11.5996 0.0692047C11.4932 0.0263204 11.3805 4.06429e-05 11.2633 4.06429e-05C10.7704 4.06429e-05 10.3562 0.460939 10.188 0.678537L10.1678 0.678825C10.1914 0.769214 10.206 0.87231 10.206 0.983347C10.206 1.1016 10.1898 1.2112 10.1636 1.30548L10.2013 1.30563C10.378 1.52972 10.7835 1.96694 11.2633 1.96694C11.8944 1.96694 12.3982 1.20932 12.4193 1.17726L12.5466 0.983058Z" fill="var(--fill-0, white)"/>
<path id="Vector_15" d="M2.8285 0.772322C2.69675 0.775499 2.56499 0.778098 2.43324 0.781708C2.44707 0.843074 2.4556 0.911083 2.4556 0.983856C2.4556 1.0637 2.44544 1.13763 2.42897 1.20319C2.56357 1.20694 2.69817 1.20954 2.83287 1.213C2.81559 1.14456 2.80481 1.06731 2.80481 0.983856C2.80492 0.907617 2.81386 0.836432 2.8285 0.772322Z" fill="var(--fill-0, white)"/>
<path id="Vector_16" d="M4.65275 0.731789C4.466 0.73511 4.27914 0.737565 4.09239 0.742185C4.11089 0.813948 4.12228 0.895241 4.12228 0.983175C4.12228 1.07818 4.10926 1.16597 4.08802 1.24149C4.27762 1.24597 4.46732 1.24842 4.65692 1.25189C4.63475 1.17334 4.62133 1.08194 4.62133 0.983031C4.62144 0.891487 4.63343 0.80644 4.65275 0.731789Z" fill="var(--fill-0, white)"/>
<path id="Vector_17" d="M9.67078 0.681983L8.68242 0.686892C8.70601 0.774537 8.72045 0.875323 8.72045 0.984194C8.72045 1.10014 8.70459 1.20742 8.67805 1.29882L9.67505 1.30388C9.64913 1.21002 9.63327 1.10158 9.63327 0.984194C9.63327 0.874024 9.64771 0.771939 9.67078 0.681983Z" fill="var(--fill-0, white)"/>
<path id="Vector_18" d="M2.0502 0.792549C1.94254 0.79587 1.83477 0.799335 1.72721 0.802656C1.7386 0.858391 1.74521 0.919469 1.74521 0.984156C1.74521 1.05577 1.73667 1.12263 1.72284 1.18298C1.83345 1.18616 1.94396 1.19006 2.05457 1.19338C2.03972 1.13028 2.03057 1.05996 2.03057 0.984301C2.03047 0.915715 2.03789 0.851171 2.0502 0.792549Z" fill="var(--fill-0, white)"/>
<path id="Vector_19" d="M3.6934 0.750177C3.53532 0.753498 3.37733 0.757973 3.21935 0.761727C3.23541 0.828147 3.24538 0.902654 3.24538 0.982647C3.24538 1.06986 3.23379 1.15043 3.21508 1.22104C3.37601 1.22465 3.53684 1.22927 3.69767 1.23259C3.67785 1.15895 3.66565 1.07419 3.66565 0.982791C3.66565 0.898467 3.67622 0.819918 3.6934 0.750177Z" fill="var(--fill-0, white)"/>
<path id="Vector_20" d="M0.151376 0.857065L0.00264332 0.863418C0.00803141 0.901826 0.0117933 0.942112 0.0117933 0.984419C0.0117933 1.03322 0.00721802 1.07914 0 1.1226L0.153713 1.12924C0.146089 1.0839 0.141209 1.03553 0.141209 0.984419C0.14131 0.939946 0.145479 0.897639 0.151376 0.857065Z" fill="var(--fill-0, white)"/>
<path id="Vector_21" d="M6.90149 0.696773C6.64906 0.700238 6.39653 0.703559 6.14421 0.706736C6.16647 0.787739 6.1802 0.881306 6.1802 0.982524C6.1802 1.09067 6.16525 1.19117 6.13984 1.27564C6.39511 1.27867 6.65049 1.28199 6.90576 1.28575C6.88004 1.19796 6.86459 1.09428 6.86459 0.982524C6.86449 0.87784 6.87852 0.780953 6.90149 0.696773Z" fill="var(--fill-0, white)"/>
<path id="Vector_22" d="M5.71844 0.713322C5.50017 0.715921 5.282 0.721118 5.06383 0.724439C5.08437 0.801111 5.09697 0.888902 5.09697 0.983478C5.09697 1.08527 5.08294 1.17956 5.05956 1.2597C5.28058 1.26316 5.50169 1.26822 5.7227 1.27111C5.69841 1.18765 5.68377 1.08946 5.68377 0.983478C5.68377 0.884715 5.69688 0.793026 5.71844 0.713322Z" fill="var(--fill-0, white)"/>
<path id="Vector_23" d="M0.718967 0.835C0.674541 0.836444 0.630317 0.837599 0.585789 0.839187L0.517574 0.842075C0.525097 0.887125 0.529876 0.934919 0.529876 0.985167C0.529876 1.04191 0.524487 1.09591 0.515134 1.14544L0.585789 1.14862C0.631029 1.15006 0.676269 1.15122 0.721407 1.15266C0.711545 1.10111 0.705954 1.04451 0.705954 0.985167C0.705954 0.932176 0.710834 0.881927 0.718967 0.835Z" fill="var(--fill-0, white)"/>
<path id="Vector_24" d="M8.21344 0.689338L7.34524 0.69367C7.36883 0.778861 7.38326 0.877625 7.38326 0.98433C7.38326 1.09797 7.36751 1.20352 7.34087 1.29232L8.21771 1.29679C8.19158 1.20583 8.17582 1.09927 8.17582 0.98433C8.17582 0.87647 8.19016 0.77655 8.21344 0.689338Z" fill="var(--fill-0, white)"/>
<path id="Vector_25" d="M23.2566 0.875533C23.2293 0.875533 23.2071 0.92376 23.2071 0.98296C23.2071 1.04231 23.2293 1.09053 23.2566 1.09053C23.2838 1.09053 23.3059 1.04231 23.3059 0.98296C23.306 0.92376 23.2839 0.875533 23.2566 0.875533Z" fill="var(--fill-0, white)"/>
<path id="Vector_26" d="M22.6864 0.86442C22.6561 0.86442 22.6315 0.91799 22.6315 0.983832C22.6315 1.04982 22.6561 1.10324 22.6864 1.10324C22.7167 1.10324 22.7412 1.04967 22.7412 0.983832C22.7412 0.917846 22.7167 0.86442 22.6864 0.86442Z" fill="var(--fill-0, white)"/>
<path id="Vector_27" d="M22.053 0.851549C22.0194 0.851549 21.992 0.910895 21.992 0.984101C21.992 1.05745 22.0194 1.1168 22.053 1.1168C22.0866 1.1168 22.1139 1.05745 22.1139 0.984101C22.1139 0.910895 22.0867 0.851549 22.053 0.851549Z" fill="var(--fill-0, white)"/>
<path id="Vector_28" d="M21.3491 0.836839C21.3119 0.836839 21.2815 0.902826 21.2815 0.984119C21.2815 1.06556 21.3119 1.13154 21.3491 1.13154C21.3866 1.13154 21.4169 1.06556 21.4169 0.984119C21.4169 0.902682 21.3866 0.836839 21.3491 0.836839Z" fill="var(--fill-0, white)"/>
<path id="Vector_29" d="M20.5675 0.82021C20.526 0.82021 20.4922 0.893417 20.4922 0.983662C20.4922 1.07405 20.526 1.14726 20.5675 1.14726C20.609 1.14726 20.6426 1.07405 20.6426 0.983662C20.6426 0.893417 20.6089 0.82021 20.5675 0.82021Z" fill="var(--fill-0, white)"/>
<path id="Vector_30" d="M19.6983 0.801822C19.6521 0.801822 19.6146 0.88326 19.6146 0.983467C19.6146 1.08396 19.6521 1.16526 19.6983 1.16526C19.7444 1.16526 19.7818 1.08382 19.7818 0.983467C19.7818 0.88326 19.7444 0.801822 19.6983 0.801822Z" fill="var(--fill-0, white)"/>
<path id="Vector_31" d="M18.7331 0.781516C18.6819 0.781516 18.6403 0.87205 18.6403 0.98352C18.6403 1.09513 18.6819 1.18567 18.7331 1.18567C18.7843 1.18567 18.8259 1.09513 18.8259 0.98352C18.8259 0.87205 18.7843 0.781516 18.7331 0.781516Z" fill="var(--fill-0, white)"/>
<path id="Vector_32" d="M17.6604 0.759371C17.6035 0.759371 17.5572 0.860012 17.5572 0.983755C17.5572 1.10779 17.6035 1.20828 17.6604 1.20828C17.7174 1.20828 17.7636 1.10779 17.7636 0.983755C17.7636 0.860012 17.7175 0.759371 17.6604 0.759371Z" fill="var(--fill-0, white)"/>
<path id="Vector_33" d="M16.4686 0.733628C16.4053 0.733628 16.3539 0.845388 16.3539 0.982993C16.3539 1.12074 16.4052 1.2325 16.4686 1.2325C16.5319 1.2325 16.583 1.12074 16.583 0.982993C16.583 0.845388 16.5318 0.733628 16.4686 0.733628Z" fill="var(--fill-0, white)"/>
<path id="Vector_34" d="M15.1441 0.705967C15.0738 0.705967 15.0167 0.830144 15.0167 0.983055C15.0167 1.13625 15.0738 1.26029 15.1441 1.26029C15.2145 1.26029 15.2715 1.13611 15.2715 0.983055C15.2715 0.830144 15.2145 0.705967 15.1441 0.705967Z" fill="var(--fill-0, white)"/>
<path id="Vector_35" d="M13.6727 0.676466C13.5946 0.676466 13.5312 0.814361 13.5312 0.984309C13.5312 1.1544 13.5946 1.2923 13.6727 1.2923C13.7509 1.2923 13.8142 1.1544 13.8142 0.984309C13.8142 0.814361 13.7509 0.676466 13.6727 0.676466Z" fill="var(--fill-0, white)"/>
<path id="Vector_36" d="M0.335776 0.875533C0.308428 0.875533 0.286368 0.92376 0.286368 0.98296C0.286368 1.04231 0.308428 1.09053 0.335776 1.09053C0.363021 1.09053 0.385183 1.04231 0.385183 0.98296C0.385183 0.92376 0.362919 0.875533 0.335776 0.875533Z" fill="var(--fill-0, white)"/>
<path id="Vector_37" d="M0.905625 0.86442C0.875329 0.86442 0.850829 0.91799 0.850829 0.983832C0.850829 1.04982 0.875329 1.10324 0.905625 1.10324C0.93592 1.10324 0.960522 1.04967 0.960522 0.983832C0.960522 0.917846 0.93592 0.86442 0.905625 0.86442Z" fill="var(--fill-0, white)"/>
<path id="Vector_38" d="M1.5393 0.851549C1.50565 0.851549 1.47841 0.910895 1.47841 0.984101C1.47841 1.05745 1.50555 1.1168 1.5393 1.1168C1.57285 1.1168 1.6003 1.05745 1.6003 0.984101C1.6003 0.910895 1.57275 0.851549 1.5393 0.851549Z" fill="var(--fill-0, white)"/>
<path id="Vector_39" d="M2.24315 0.836839C2.20563 0.836839 2.17534 0.902826 2.17534 0.984119C2.17534 1.06556 2.20563 1.13154 2.24315 1.13154C2.28036 1.13154 2.31075 1.06556 2.31075 0.984119C2.31086 0.902682 2.28046 0.836839 2.24315 0.836839Z" fill="var(--fill-0, white)"/>
<path id="Vector_40" d="M3.02479 0.82021C2.98331 0.82021 2.94966 0.893417 2.94966 0.983662C2.94966 1.07405 2.98331 1.14726 3.02479 1.14726C3.06627 1.14726 3.10012 1.07405 3.10012 0.983662C3.10012 0.893417 3.06627 0.82021 3.02479 0.82021Z" fill="var(--fill-0, white)"/>
<path id="Vector_41" d="M3.89387 0.801822C3.84771 0.801822 3.8104 0.88326 3.8104 0.983467C3.8104 1.08396 3.84771 1.16526 3.89387 1.16526C3.94002 1.16526 3.97753 1.08382 3.97753 0.983467C3.97753 0.88326 3.94002 0.801822 3.89387 0.801822Z" fill="var(--fill-0, white)"/>
<path id="Vector_42" d="M4.85934 0.781516C4.8081 0.781516 4.76652 0.87205 4.76652 0.98352C4.76652 1.09513 4.8081 1.18567 4.85934 1.18567C4.91057 1.18567 4.95216 1.09513 4.95216 0.98352C4.95216 0.87205 4.91057 0.781516 4.85934 0.781516Z" fill="var(--fill-0, white)"/>
<path id="Vector_43" d="M5.93179 0.759371C5.87476 0.759371 5.82861 0.860012 5.82861 0.983755C5.82861 1.10779 5.87476 1.20828 5.93179 1.20828C5.98872 1.20828 6.03498 1.10779 6.03498 0.983755C6.03498 0.860012 5.98872 0.759371 5.93179 0.759371Z" fill="var(--fill-0, white)"/>
<path id="Vector_44" d="M7.12381 0.733628C7.06057 0.733628 7.00933 0.845388 7.00933 0.982993C7.00933 1.12074 7.06057 1.2325 7.12381 1.2325C7.18704 1.2325 7.23848 1.12074 7.23848 0.982993C7.23838 0.845388 7.18704 0.733628 7.12381 0.733628Z" fill="var(--fill-0, white)"/>
<path id="Vector_45" d="M8.44812 0.705967C8.37777 0.705967 8.32073 0.830144 8.32073 0.983055C8.32073 1.13625 8.37777 1.26029 8.44812 1.26029C8.51847 1.26029 8.5755 1.13611 8.5755 0.983055C8.5755 0.830144 8.51847 0.705967 8.44812 0.705967Z" fill="var(--fill-0, white)"/>
<path id="Vector_46" d="M9.91967 0.676466C9.84149 0.676466 9.77815 0.814361 9.77815 0.984309C9.77815 1.1544 9.84149 1.2923 9.91967 1.2923C9.99774 1.2923 10.0612 1.1544 10.0612 0.984309C10.0612 0.814361 9.99774 0.676466 9.91967 0.676466Z" fill="var(--fill-0, white)"/>
</g>
</svg>
