<svg preserveAspectRatio="none" width="100%" height="100%" overflow="visible" style="display: block;" viewBox="0 0 61.2229 19.9415" fill="none" xmlns="http://www.w3.org/2000/svg">
<g id="Group 1244830990">
<path id="Union" d="M12.8789 0.00023828C16.1635 0.039845 18.4316 2.23096 20.6318 4.32934C23.7082 4.57102 25.0551 5.80921 26.4521 5.92602C30.2739 6.24512 31.5668 4.469 35.71 7.26293C35.8399 7.39333 35.9743 7.51435 36.1025 7.63305C36.1717 7.69701 36.2377 7.76174 36.3018 7.82543C36.3231 7.8467 36.3446 7.86751 36.3652 7.88891C36.3903 7.9149 36.4139 7.94169 36.4375 7.96801C36.4569 7.98967 36.4758 8.01147 36.4941 8.03344C36.5121 8.05491 36.53 8.07605 36.5469 8.09789C36.5523 8.10487 36.5582 8.11138 36.5635 8.1184L36.6504 8.24633C36.7214 8.36313 36.774 8.48733 36.8008 8.62426C36.0713 8.77028 35.8091 8.58989 35.2363 8.65356L34.0352 8.50219C34.5334 8.43005 35.0309 8.34923 35.5264 8.26L35.5508 8.02563L34.6396 7.46215L34.6387 7.46313C33.353 6.94803 29.8381 6.00463 29.0576 7.51977C30.0042 8.65471 32.6164 8.5834 34.0352 8.50219L35.2354 8.65356H35.2363L32.6807 9.37524C33.2946 9.47504 36.8196 9.70709 36.8877 9.74926C35.7463 13.0465 29.86 13.5456 26.9453 12.7268C24.7098 14.1742 23.5332 14.6819 20.96 15.0295C17.917 18.881 12.8633 22.4872 8.70801 17.5178C8.24422 16.9634 7.90183 16.6704 7.94043 15.9338C8.55435 15.7279 11.365 17.2479 13.1406 17.5012C15.6692 16.6499 16.1243 16.197 18.04 14.3743C17.0315 13.5132 15.4414 11.7408 16.249 10.3332C16.9927 10.6371 17.9331 12.3404 19.2666 13.1155L22.3965 9.63305C21.2549 8.6193 19.9874 7.33623 18.873 6.26293C17.7311 7.38121 17.135 8.35361 16.2646 9.67407C15.0671 8.44369 16.9007 6.08595 17.7666 5.23364C14.5615 2.58284 12.4999 1.46435 8.88965 3.9895C8.55592 4.22292 8.00232 4.53248 7.58984 4.51879L7.42188 4.08911C7.93756 2.05072 10.7367 -0.0255776 12.8789 0.00023828ZM6.31934 11.6887C6.57038 11.6921 7.0391 11.758 7.30859 11.7883C7.55359 12.3562 5.22736 13.249 5.39062 14.2834C5.46842 14.777 5.47077 15.7079 5.36621 16.2082C5.23355 16.1964 5.10125 16.1787 4.9707 16.1536C4.27355 16.0164 4.00591 15.6967 3.63867 15.1438C3.16471 13.3765 4.78083 12.1089 6.31934 11.6887ZM38.209 9.75024C38.0552 12.8351 34.5246 14.9256 31.6475 15.0149L31.5654 14.8655L31.7236 14.5842L31.5176 14.72C31.7417 14.2092 33.2259 13.7619 33.832 13.4426C36.0498 12.2737 36.7591 11.703 38.209 9.75024ZM2.97754 8.72192C3.26188 8.63628 8.31817 8.93949 7.65625 10.635C7.05022 11.2165 6.04187 11.3015 5.19922 11.4534C4.9404 11.4764 3.49055 11.9396 3.15137 12.0432L0 10.4631C1.01825 9.75071 1.8876 9.30126 2.97754 8.72192ZM36.6299 9.90649C35.0488 10.0402 33.9724 10.0675 32.3848 10.0422C31.4306 10.2578 30.3656 10.428 29.5771 10.9983L29.3379 11.4036C29.9844 12.181 31.5192 11.877 32.4941 11.8166C34.4123 11.279 34.8923 11.023 36.6299 9.90649ZM11.3193 8.37133C12.1958 8.04712 13.1719 8.47323 13.5303 9.33618C13.8886 10.1991 13.5015 11.1911 12.6533 11.5832C12.0741 11.851 11.3945 11.7808 10.8828 11.3997C10.3711 11.0183 10.1093 10.3866 10.2002 9.75512C10.2915 9.12358 10.7209 8.59257 11.3193 8.37133ZM26.9209 8.01977C26.359 8.4631 25.7431 8.8318 25.6162 9.52856C26.0661 11.3829 27.9749 10.5854 29.1416 9.99243C29.4921 9.85764 29.8258 9.73989 30.1426 9.56957L30.1455 9.58325L30.2949 9.48168C30.2445 9.51249 30.1939 9.54196 30.1426 9.56957L30.0225 8.92211C29.0074 8.73754 27.5007 8.1104 26.9209 8.01977ZM4.41602 4.42114C5.76395 5.0056 4.61409 6.19626 5.55273 7.27661C6.0408 7.83868 7.09479 7.9919 7.33203 8.58911L6.83203 8.95825C4.4049 8.45498 1.63285 6.83137 4.32812 4.385C4.35745 4.39673 4.38691 4.40863 4.41602 4.42114ZM31.2568 3.49438C33.766 3.30369 37.9975 5.39254 37.9258 8.11743C35.0549 4.68619 32.8991 5.28559 31.2031 3.94457L31.2568 3.49438Z" fill="url(#paint0_linear_0_114)"/>
<path id="Vector" d="M60.9233 8.94304C60.5324 9.15773 60.0662 9.07284 59.6782 9.0709L56.7413 9.06788L45.7606 9.06593C44.6665 9.06572 43.5666 9.23483 42.4733 8.94001C42.4526 8.9344 42.2513 8.77264 42.2117 9.13656C42.2025 9.99165 42.2171 10.2672 42.2492 11.0415L42.2514 11.0498C42.3059 11.2381 42.7011 10.6579 42.925 10.6251C43.6555 10.8152 44.389 10.6556 45.1197 10.6564L57.6888 10.6582L61.0321 10.9778C61.1349 10.9778 61.1809 10.9135 61.209 9.72642C61.2647 8.53936 61.1497 8.89283 60.9233 8.94304Z" fill="url(#paint1_linear_0_114)"/>
</g>
<defs>
<linearGradient id="paint0_linear_0_114" x1="0" y1="9.97099" x2="38.209" y2="9.97099" gradientUnits="userSpaceOnUse">
<stop stop-color="#D9FBFF"/>
<stop offset="1" stop-color="#829699"/>
</linearGradient>
<linearGradient id="paint1_linear_0_114" x1="61.2229" y1="9.97118" x2="42.209" y2="9.97118" gradientUnits="userSpaceOnUse">
<stop stop-color="#829699" stop-opacity="0"/>
<stop offset="1" stop-color="#D9FBFF"/>
</linearGradient>
</defs>
</svg>
