<svg preserveAspectRatio="none" width="100%" height="100%" overflow="visible" style="display: block;" viewBox="0 0 383.206 26.7263" fill="none" xmlns="http://www.w3.org/2000/svg">
<g id="Group">
<path id="Vector" d="M177.716 16.9347C178.048 17.1655 177.47 16.7525 177.716 16.9347Z" fill="url(#paint0_linear_0_11)" fill-opacity="0.2"/>
<path id="Vector_2" d="M371.388 22.9457L359.558 22.7769L335.898 22.446C327.003 22.3493 318.111 22.2601 309.218 22.1804C309.812 22.0847 310.353 21.9899 310.817 21.9036C316.883 20.7761 325.348 17.8119 330.077 21.2806C320.64 14.512 299.956 26.8932 294.267 18.7412C294.017 20.411 294.869 21.4579 296.323 22.079C293.742 22.06 291.16 22.0344 288.579 22.0183C287.541 22.0088 286.499 22.0069 285.461 21.9993C289.083 20.4072 291.817 17.7009 296.678 17.9911C301.921 18.3059 309.334 20.7761 315.212 18.7402C312.443 19.4163 308.432 18.3932 306.291 17.0865C305.295 16.4787 303.99 15.3853 302.283 15.5275C300.604 15.6688 300.894 16.8456 301.554 17.773C292.228 15.52 286.428 20.1503 281.651 21.9747C279.705 21.9624 277.759 21.951 275.812 21.9396L275.724 21.9273C275.733 21.932 275.74 21.9349 275.747 21.9387C274.169 21.9311 272.594 21.9178 271.015 21.9102C272.396 21.2853 273.559 20.4072 274.441 19.2305C275.366 17.9977 278.786 15.4659 280.845 17.4544C279.195 16.7973 275.312 17.7009 275.3 19.2276C275.284 21.2597 278.956 21.1535 280.821 20.6983C283.295 20.0953 284.954 18.3467 286.297 16.7603C287.588 15.2384 289.692 12.8592 289.758 11.1305C286.058 13.7676 281.354 14.292 276.51 14.9396C274.677 15.1843 272.622 15.3758 271.383 16.5479C270.446 17.4335 270.524 19.9198 272.863 19.1195C272 20.155 270.304 21.0331 268.386 21.6732C267.982 21.7528 267.598 21.8277 267.237 21.8874C266.008 21.8808 264.781 21.8713 263.552 21.8666C263.287 21.8087 263.011 21.7405 262.719 21.657C261.322 21.2531 258.95 19.4941 257.598 19.9872C258.607 20.5258 259.326 21.3166 260.361 21.8524C253.992 21.8268 247.623 21.8031 241.257 21.7699L238.862 21.767C239.942 20.8937 240.618 19.6467 240.446 18.7402C239.242 20.0346 237.917 21.2133 236.048 21.7623L225.195 21.7433C222.322 20.6585 223.818 17.0836 227.057 16.2643C224.256 16.6541 223.195 17.7417 221.991 19.44C221.086 20.7135 219.982 21.3232 218.668 21.7319L209.474 21.7158C214.212 21.2863 217.447 19.1271 221.221 16.857C221.841 16.5299 222.441 16.2293 223.011 15.9789C223.5 15.7656 224.429 15.4745 225.584 15.1805C230.134 14.2948 238.238 13.8037 236.257 17.6839C236.174 17.7967 236.273 17.6763 236.174 17.7967C234.516 14.8353 228.577 14.9785 228.057 17.7351C227.512 20.631 233.561 20.7619 235.723 19.5206C236.619 19.0067 237.249 18.5126 237.682 18.0366C239.285 16.5877 238.739 14.6286 236.154 13.2593C233.838 12.0333 231.221 11.818 228.717 12.2476C236.424 9.36396 243.259 11.3173 249.802 15.0354C248.999 14.7396 247.667 14.1877 245.57 13.6585C244.171 13.0782 242.857 12.5918 238.927 12.386L245.132 14.2958C242.631 14.603 240.644 16.7754 243.778 18.6103C250.212 22.3749 256.68 17.499 264.782 19.2229C260.387 16.9935 260.299 13.6187 256.536 11.0755C255.884 10.5948 254.696 9.8523 254.18 9.65506C251.935 8.79974 249.535 10.0145 249.272 11.6464C249.103 12.6752 249.791 13.4338 250.69 14.0511C244.183 10.0448 235.869 8.91731 229.789 11.3742C231.031 10.2581 231.769 9.40663 233.123 8.42235C233.123 8.42235 235.962 8.98561 238.695 7.90745C243.293 6.0963 243.319 2.87128 246.165 0.00283594C241.776 1.57882 235.358 -0.669462 232.319 2.67311C229.842 5.39932 231.389 8.48397 228.912 11.2244L226.87 12.6856C226.399 12.8269 225.937 12.9881 225.487 13.1693C224.51 13.5637 223.601 14.0436 222.717 14.5566C221.774 14.9728 219.657 14.4248 219.1 13.6785C218.411 12.7549 219.832 12.6515 223.171 11.8465C225.135 11.3742 225.739 11.2547 227.62 8.29337C224.38 9.46541 220.584 7.59642 217.838 10.0647C214.894 12.7075 217.757 14.6191 221.275 15.2393C221.043 15.483 220.724 15.739 220.363 15.9903C220.04 16.1894 219.719 16.3876 219.396 16.5839C218.118 17.2666 216.522 17.7977 215.136 17.7531C214.586 17.736 214.127 17.6573 213.708 17.5492C213.718 17.3871 213.715 17.2353 213.698 17.1178C213.585 16.1686 213.045 15.373 212.334 14.6988C211.623 14.0274 210.753 13.4936 209.829 13.0574C207.981 12.1859 205.968 11.6246 203.931 11.2206C199.837 10.4544 195.619 10.2695 191.525 10.5635C195.604 10.8717 199.621 11.4273 203.254 12.4846C205.057 13.0033 206.786 13.6443 208.16 14.4627C208.839 14.8733 209.438 15.317 209.856 15.7855C210.055 16.0045 210.208 16.2368 210.315 16.4673C209.216 16.289 207.77 16.3355 205.503 16.9186C207.176 17.0903 208.103 17.4942 208.509 18.0205C208.174 18.0584 207.826 18.0935 207.468 18.121C205.532 18.2671 203.402 18.3486 201.249 18.6169C199.098 18.8777 196.895 19.3632 194.876 20.155C193.663 20.6301 192.56 21.236 191.577 21.9168C190.605 21.2057 189.492 20.5779 188.259 20.0991C186.219 19.3006 184.002 18.836 181.849 18.5894C179.699 18.3363 177.573 18.2585 175.637 18.1144C175.317 18.0907 175.003 18.0603 174.698 18.0271C175.102 17.4971 176.03 17.0922 177.709 16.9186C175.302 16.3004 173.827 16.289 172.704 16.5052C173.034 15.7883 173.846 15.0752 174.87 14.4665C176.245 13.6443 177.973 13.0033 179.781 12.4837C183.418 11.4245 187.438 10.8679 191.523 10.5625C187.424 10.2695 183.204 10.4544 179.105 11.2254C177.065 11.6293 175.053 12.1935 173.204 13.0688C172.283 13.5059 171.41 14.0388 170.704 14.7149C169.995 15.3796 169.459 16.2141 169.354 17.1159C169.335 17.2524 169.337 17.4146 169.35 17.5853C168.972 17.6706 168.557 17.7351 168.074 17.7502C166.688 17.7948 165.091 17.2638 163.813 16.581C163.49 16.3857 163.167 16.1866 162.848 15.9875C162.485 15.7362 162.166 15.4801 161.934 15.2364C165.454 14.6163 168.316 12.7046 165.373 10.0618C162.625 7.59356 158.831 9.46257 155.589 8.29054C157.472 11.2519 158.074 11.3714 160.038 11.8436C163.377 12.6487 164.798 12.752 164.109 13.6756C163.553 14.4219 161.437 14.97 160.493 14.5537C159.608 14.0416 158.699 13.5609 157.722 13.1664C157.272 12.9853 156.81 12.8241 156.339 12.6828L154.297 11.2216C151.82 8.48114 153.367 5.39648 150.892 2.67027C147.853 -0.672298 141.434 1.57599 137.045 0C139.893 2.8675 139.919 6.09249 144.517 7.90459C147.252 8.98275 150.089 8.41949 150.089 8.41949C151.443 9.40377 152.179 10.2544 153.421 11.3714C147.343 8.91448 139.028 10.0419 132.522 14.0483C133.42 13.431 134.108 12.6724 133.941 11.6435C133.675 10.0116 131.276 8.79691 129.031 9.65222C128.513 9.84946 127.327 10.5919 126.674 11.0727C122.91 13.6159 122.823 16.9907 118.428 19.22C126.53 17.4961 132.999 22.372 139.432 18.6075C142.568 16.7726 140.581 14.6002 138.08 14.2929L144.287 12.3832C140.355 12.588 139.041 13.0744 137.642 13.6557C135.545 14.1858 134.213 14.7367 133.41 15.0326C139.955 11.3145 146.788 9.36109 154.495 12.2447C151.993 11.8152 149.374 12.0295 147.058 13.2565C144.474 14.6258 143.929 16.5849 145.532 18.0338C145.963 18.5088 146.595 19.0038 147.489 19.5178C149.651 20.7581 155.7 20.6282 155.155 17.7322C154.637 14.9766 148.696 14.8334 147.038 17.7939C146.939 17.6734 147.038 17.7939 146.956 17.681C144.974 13.8008 153.075 14.292 157.629 15.1777C158.781 15.4716 159.711 15.7627 160.201 15.9761C160.77 16.2255 161.371 16.5261 161.99 16.8542C165.763 19.1233 168.997 21.2834 173.736 21.713L164.541 21.7291C163.228 21.3204 162.123 20.7116 161.22 19.4372C160.016 17.7389 158.954 16.6512 156.153 16.2615C159.393 17.0808 160.888 20.6557 158.017 21.7405L147.164 21.7594C145.295 21.2104 143.971 20.0327 142.767 18.7374C142.594 19.6439 143.272 20.8908 144.351 21.7642L141.958 21.767C135.59 21.8002 129.221 21.8239 122.854 21.8495C123.889 21.3137 124.606 20.5229 125.617 19.9843C124.266 19.4912 121.895 21.2502 120.497 21.6542C120.204 21.7386 119.93 21.8068 119.663 21.8637C118.436 21.8685 117.207 21.878 115.978 21.8846C115.617 21.8239 115.234 21.749 114.831 21.6703C112.914 21.0293 111.216 20.1512 110.354 19.1167C112.693 19.917 112.772 17.4307 111.835 16.545C110.594 15.373 108.54 15.1824 106.708 14.9368C101.864 14.2901 97.1613 13.7648 93.4599 11.1277C93.5274 12.8564 95.6303 15.2355 96.9194 16.7574C98.2627 18.3429 99.9212 20.0924 102.397 20.6955C104.262 21.1507 107.934 21.2569 107.918 19.2248C107.905 17.6981 104.023 16.7944 102.372 17.4515C104.431 15.464 107.85 17.9958 108.776 19.2276C109.659 20.4044 110.82 21.2825 112.203 21.9074C110.625 21.9149 109.049 21.9282 107.471 21.9358C107.478 21.933 107.487 21.9292 107.496 21.9244L107.406 21.9368C105.46 21.9481 103.514 21.9586 101.568 21.9719C96.7918 20.1474 90.9919 15.5162 81.6636 17.7702C82.3235 16.8428 82.6139 15.666 80.9348 15.5247C79.2278 15.3815 77.9226 16.4758 76.9269 17.0836C74.7859 18.3912 70.7736 19.4135 68.0049 18.7374C73.881 20.7733 81.2955 18.3031 86.5367 17.9883C91.3996 17.6971 94.1331 20.4044 97.7538 21.9965C96.7155 22.0041 95.6773 22.006 94.6375 22.0155C92.0565 22.0316 89.4741 22.0572 86.8931 22.0762C88.3478 21.4541 89.1998 20.4082 88.9491 18.7383C83.2606 26.8904 62.5745 14.5101 53.1377 21.2777C57.8686 17.809 66.3346 20.7733 72.4014 21.9007C72.8648 21.987 73.4044 22.0818 73.9984 22.1776C65.1056 22.2573 56.2129 22.3464 47.3202 22.4431L23.6601 22.7741L11.8301 22.9429L6.8924e-06 23.1638L11.8301 23.3866L23.6601 23.5535L47.3202 23.8845C63.0936 24.058 78.8656 24.2154 94.639 24.314C110.412 24.4505 126.186 24.4809 141.958 24.5606L184.622 24.6336L179.007 23.0415C177.712 22.4564 176.276 21.5053 175.367 20.522C177.397 20.7306 179.29 20.869 181.089 21.144C182.947 21.4257 184.7 21.7964 186.179 22.4118C187.666 23.013 188.863 23.8399 189.755 24.8403L191.434 26.7263L193.243 24.8896C194.216 23.9015 195.458 23.0785 196.955 22.4659C198.452 21.8486 200.19 21.4579 202.041 21.1715C203.856 20.8823 205.774 20.741 207.838 20.5239C206.93 21.5063 205.496 22.4574 204.199 23.0415L198.584 24.6336L241.25 24.5606C257.023 24.4809 272.795 24.4505 288.569 24.314C304.342 24.2154 320.115 24.058 335.887 23.8845L359.548 23.5535L371.378 23.3866L383.206 23.1638L371.388 22.9457Z" fill="url(#paint1_linear_0_11)" fill-opacity="0.2"/>
<path id="Vector_3" d="M205.509 16.9347C205.755 16.7525 205.178 17.1655 205.509 16.9347Z" fill="url(#paint2_linear_0_11)" fill-opacity="0.2"/>
</g>
<defs>
<linearGradient id="paint0_linear_0_11" x1="177.653" y1="16.9469" x2="177.821" y2="16.9469" gradientUnits="userSpaceOnUse">
<stop stop-color="#666666" stop-opacity="0"/>
<stop offset="0.155051" stop-color="#E7E7E7"/>
<stop offset="0.852137" stop-color="white"/>
<stop offset="1" stop-color="#666666" stop-opacity="0"/>
</linearGradient>
<linearGradient id="paint1_linear_0_11" x1="6.8924e-06" y1="13.3632" x2="380.019" y2="13.3632" gradientUnits="userSpaceOnUse">
<stop stop-color="#666666" stop-opacity="0"/>
<stop offset="0.155051" stop-color="#E7E7E7"/>
<stop offset="0.852137" stop-color="white"/>
<stop offset="1" stop-color="#666666" stop-opacity="0"/>
</linearGradient>
<linearGradient id="paint2_linear_0_11" x1="205.404" y1="16.9469" x2="205.57" y2="16.9469" gradientUnits="userSpaceOnUse">
<stop stop-color="#666666" stop-opacity="0"/>
<stop offset="0.155051" stop-color="#E7E7E7"/>
<stop offset="0.852137" stop-color="white"/>
<stop offset="1" stop-color="#666666" stop-opacity="0"/>
</linearGradient>
</defs>
</svg>
