<svg preserveAspectRatio="none" width="100%" height="100%" overflow="visible" style="display: block;" viewBox="0 0 88.3203 20.0003" fill="none" xmlns="http://www.w3.org/2000/svg">
<g id="Frame 2147223746">
<path id="Union" d="M12.916 0.000235222C16.2102 0.0399556 18.4848 2.23756 20.6914 4.34203C23.7767 4.58438 25.1281 5.82635 26.5293 5.94359C30.3622 6.2636 31.6592 4.48231 35.8145 7.28441C36.1153 7.5863 36.4376 7.83977 36.6582 8.12816C36.6879 8.16704 36.7156 8.20689 36.7412 8.24731C36.7463 8.25531 36.7529 8.26266 36.7578 8.27074C36.7756 8.29996 36.7933 8.32936 36.8086 8.35961C36.8239 8.38984 36.8379 8.42098 36.8506 8.45238C36.876 8.51529 36.8958 8.58108 36.9092 8.64965C36.1774 8.79621 35.9141 8.61523 35.3398 8.67895L34.1348 8.5266C34.6344 8.45426 35.133 8.37389 35.6299 8.28441L35.6543 8.04906L34.7402 7.48461C33.4508 6.968 29.9253 6.02264 29.1426 7.54223C30.0921 8.68028 32.712 8.60902 34.1348 8.52758L35.3369 8.67895L32.7764 9.40356C33.3926 9.50368 36.9289 9.73534 36.9961 9.77758C35.8515 13.0845 29.9478 13.585 27.0244 12.7639C24.7825 14.2155 23.602 14.7258 21.0215 15.0745C17.9696 18.9371 12.9007 22.5531 8.7334 17.5696C8.2683 17.0135 7.92525 16.7192 7.96387 15.9807C8.5804 15.7749 11.3992 17.2991 13.1797 17.553C15.7154 16.6992 16.1714 16.2444 18.0928 14.4163C17.0814 13.5527 15.4865 11.776 16.2959 10.3645C17.0418 10.6693 17.9857 12.3773 19.3232 13.1545L22.4619 9.66137C21.3171 8.64475 20.0462 7.35784 18.9287 6.28149C17.7833 7.40306 17.1854 8.37813 16.3125 9.70238C15.1115 8.46844 16.9499 6.10414 17.8184 5.24926C14.604 2.59077 12.5367 1.4689 8.91602 4.00121C8.58144 4.23526 8.02604 4.54596 7.6123 4.53246L7.44336 4.1018C7.96052 2.05753 10.7676 -0.0254547 12.916 0.000235222ZM6.33691 11.7229C6.58867 11.7263 7.05971 11.792 7.33008 11.8225C7.57591 12.392 5.24251 13.288 5.40625 14.3254C5.48425 14.8206 5.48576 15.7544 5.38086 16.2561C5.24803 16.2443 5.11608 16.2255 4.98535 16.2004C4.28631 16.0629 4.01761 15.743 3.64941 15.1887C3.17388 13.4162 4.79394 12.1444 6.33691 11.7229ZM38.3203 9.77856C38.1661 12.8724 34.6258 14.9691 31.7402 15.0588L31.6582 14.9084L31.8164 14.6272L31.6094 14.7639C31.8336 14.2515 33.3226 13.803 33.9307 13.4827C36.1552 12.3102 36.8661 11.7371 38.3203 9.77856ZM2.98633 8.74731C3.27287 8.66154 8.34248 8.96601 7.67871 10.6663C7.07091 11.2495 6.05903 11.3342 5.21387 11.4866C4.95375 11.5098 3.50025 11.9745 3.16016 12.0784L0 10.4944C1.02135 9.77978 1.89304 9.32843 2.98633 8.74731ZM36.7373 9.93481C35.1515 10.0689 34.0718 10.0979 32.4795 10.0725C31.5225 10.2887 30.4538 10.4586 29.6631 11.0305L29.4238 11.4368C30.0723 12.2163 31.6111 11.9123 32.5889 11.8518C34.5129 11.3126 34.9944 11.0547 36.7373 9.93481ZM11.3525 8.39574C12.2314 8.07082 13.2099 8.4982 13.5693 9.36352C13.9288 10.229 13.5411 11.2241 12.6904 11.6174C12.1096 11.886 11.4282 11.815 10.915 11.4329C10.4019 11.0504 10.1384 10.4178 10.2295 9.78441C10.3209 9.1508 10.7521 8.61767 11.3525 8.39574ZM26.999 8.0432C26.4355 8.4878 25.8187 8.85812 25.6914 9.55688C26.1428 11.4162 28.0565 10.6164 29.2266 10.0217C29.5778 9.88662 29.9129 9.7695 30.2305 9.59887L30.2334 9.61156L30.376 9.51488C30.3278 9.54414 30.2795 9.57251 30.2305 9.59887L30.1104 8.94848C29.0922 8.76336 27.5804 8.13402 26.999 8.0432ZM4.42871 4.43383C5.78056 5.02001 4.62794 6.21457 5.56934 7.29809C6.05906 7.86149 7.11579 8.01554 7.35352 8.61449L6.85156 8.98461C4.41724 8.47985 1.63724 6.85136 4.34082 4.3977C4.37017 4.40944 4.39957 4.42131 4.42871 4.43383ZM31.3477 3.50414C33.8641 3.31281 38.109 5.40793 38.0371 8.14086C35.1578 4.69956 32.9949 5.30124 31.2939 3.95629L31.3477 3.50414Z" fill="url(#paint0_linear_0_250)"/>
<path id="Vector" d="M87.627 8.61832C86.7225 8.90689 85.6437 8.7928 84.7457 8.79018L77.9496 8.78612L52.539 8.78351C50.0073 8.78322 47.462 9.01053 44.9319 8.61426C44.8841 8.60671 44.4183 8.38928 44.3265 8.87844C44.3054 10.0278 44.3392 10.3982 44.4133 11.439L44.4184 11.45C44.5446 11.7032 45.4591 10.9233 45.9772 10.8793C47.6677 11.1348 49.365 10.9202 51.056 10.9214L80.142 10.9237L87.8789 11.3534C88.1166 11.3534 88.2232 11.2668 88.2881 9.67129C88.4171 8.07572 88.151 8.55084 87.627 8.61832Z" fill="url(#paint1_linear_0_250)"/>
</g>
<defs>
<linearGradient id="paint0_linear_0_250" x1="0" y1="10.0003" x2="38.3203" y2="10.0003" gradientUnits="userSpaceOnUse">
<stop stop-color="#D9FBFF"/>
<stop offset="1" stop-color="#829699"/>
</linearGradient>
<linearGradient id="paint1_linear_0_250" x1="88.3203" y1="10.0003" x2="44.3203" y2="10.0003" gradientUnits="userSpaceOnUse">
<stop stop-color="#829699" stop-opacity="0"/>
<stop offset="1" stop-color="#D9FBFF"/>
</linearGradient>
</defs>
</svg>
