<svg preserveAspectRatio="none" width="100%" height="100%" overflow="visible" style="display: block;" viewBox="0 0 28.5209 3.34809" fill="none" xmlns="http://www.w3.org/2000/svg">
<path id="Vector" d="M0.449416 0.131729C1.0357 0.453763 1.735 0.326438 2.31706 0.323523L6.72234 0.318987L23.1935 0.316073C24.8346 0.315749 26.4845 0.569423 28.1244 0.127194C28.1554 0.11877 28.4574 -0.12387 28.5169 0.422012C28.5306 1.70464 28.5086 2.11803 28.4606 3.27949L28.4573 3.29181C28.3755 3.57431 27.7827 2.70404 27.4469 2.65486C26.3511 2.93997 25.2509 2.70055 24.1548 2.70184L5.30118 2.70443L0.286132 3.18392C0.132069 3.18392 0.0629403 3.08738 0.0208981 1.3068C-0.0627636 -0.473785 0.109732 0.0564215 0.449416 0.131729Z" fill="url(#paint0_linear_0_20)"/>
<defs>
<linearGradient id="paint0_linear_0_20" x1="1.60624e-10" y1="1.67394" x2="28.5209" y2="1.67394" gradientUnits="userSpaceOnUse">
<stop stop-color="#829699" stop-opacity="0"/>
<stop offset="1" stop-color="#D9FBFF"/>
</linearGradient>
</defs>
</svg>
