<svg preserveAspectRatio="none" width="100%" height="100%" overflow="visible" style="display: block;" viewBox="0 0 72.8402 19.9993" fill="none" xmlns="http://www.w3.org/2000/svg">
<g id="Frame 2147223746">
<path id="Union" d="M12.916 0.000237047C16.2101 0.0400426 18.4848 2.2376 20.6914 4.34203C23.7769 4.58444 25.128 5.8266 26.5293 5.9436C30.3619 6.2635 31.6584 4.48244 35.8135 7.28442L36.166 7.61742C36.4865 7.91271 36.7766 8.1896 36.8838 8.55297C36.8932 8.5845 36.9017 8.61667 36.9082 8.64965C36.8169 8.66794 36.7325 8.68146 36.6543 8.69067H36.6533C36.7201 8.68283 36.791 8.66993 36.8672 8.65551C36.166 8.78752 35.9023 8.61643 35.3389 8.67895L32.7764 9.40258C33.3942 9.50278 36.9301 9.73546 36.9951 9.77758C35.8506 13.0846 29.9467 13.585 27.0234 12.7639C24.7815 14.2155 23.601 14.7248 21.0205 15.0735C17.9687 18.9361 12.9007 22.5523 8.7334 17.5686C8.26831 17.0126 7.92523 16.7192 7.96387 15.9807C8.5805 15.7751 11.3984 17.298 13.1787 17.552C15.7145 16.6982 16.1713 16.2444 18.0928 14.4163C17.0813 13.5527 15.4859 11.7751 16.2959 10.3635C17.0418 10.6684 17.9858 12.3764 19.3232 13.1536L22.4619 9.66039C21.3173 8.64391 20.0461 7.35774 18.9287 6.28149C17.7832 7.40313 17.1845 8.37801 16.3115 9.70239C15.1108 8.46839 16.95 6.10401 17.8184 5.24926C14.6041 2.59084 12.5366 1.46904 8.91602 4.00121C8.5815 4.23522 8.02603 4.5449 7.6123 4.53149L7.44336 4.10082C7.9608 2.05669 10.7678 -0.0255483 12.916 0.000237047ZM6.33691 11.7219C6.58866 11.7253 7.05972 11.792 7.33008 11.8225C7.57547 12.3919 5.24301 13.2872 5.40625 14.3245C5.48429 14.8193 5.4857 15.7532 5.38086 16.2551C5.24787 16.2433 5.11525 16.2256 4.98438 16.2004C4.28547 16.0629 4.01766 15.7421 3.64941 15.1877C3.17407 13.4153 4.79394 12.1433 6.33691 11.7219ZM38.3193 9.77856C38.1651 12.8724 34.6248 14.9692 31.7393 15.0588L31.6572 14.9084L31.8154 14.6272L31.6084 14.7629C31.8329 14.2507 33.3216 13.8029 33.9297 13.4827C36.1541 12.3102 36.8651 11.7371 38.3193 9.77856ZM2.98633 8.74731C3.27342 8.6616 8.34242 8.96616 7.67871 10.6663C7.07093 11.2495 6.05901 11.3342 5.21387 11.4866C4.9541 11.5097 3.5003 11.9745 3.16016 12.0784L0 10.4944C1.02135 9.77978 1.89305 9.32843 2.98633 8.74731ZM36.7363 9.93481C35.1507 10.0689 34.0707 10.0969 32.4785 10.0715C31.5217 10.2877 30.4538 10.4587 29.6631 11.0305L29.4229 11.4368C30.0712 12.2163 31.6101 11.9114 32.5879 11.8508C34.5117 11.3116 34.9935 11.0547 36.7363 9.93481ZM11.3516 8.39574C12.2306 8.07059 13.2099 8.49806 13.5693 9.36352C13.9286 10.2289 13.5409 11.2241 12.6904 11.6174C12.1095 11.8861 11.4273 11.8151 10.9141 11.4329C10.401 11.0504 10.1384 10.4177 10.2295 9.78442C10.3209 9.15092 10.7513 8.61772 11.3516 8.39574ZM26.999 8.04321C26.4356 8.48777 25.8178 8.85729 25.6904 9.5559C26.1417 11.4154 28.0555 10.6154 29.2256 10.0207C29.5772 9.88553 29.9127 9.76784 30.2305 9.59692L30.2334 9.61059L30.3906 9.50414C30.3377 9.53671 30.2844 9.56789 30.2305 9.59692L30.1094 8.94848C29.0915 8.76337 27.5807 8.13426 26.999 8.04321ZM4.42871 4.43383C5.7802 5.01993 4.62773 6.21377 5.56836 7.29711C6.05789 7.86089 7.11573 8.01538 7.35352 8.61449L6.85156 8.98461C4.41728 8.47986 1.63717 6.85134 4.34082 4.3977C4.37014 4.40943 4.3996 4.42132 4.42871 4.43383ZM34.4727 7.38403C33.0202 6.85996 29.8755 6.1167 29.1416 7.54125C30.0909 8.67946 32.711 8.60805 34.1338 8.5266L35.3379 8.67895V8.67797L34.1338 8.5266C34.6333 8.45428 35.1322 8.37386 35.6289 8.28442L35.6533 8.04907L34.7393 7.48461L34.4727 7.38403ZM31.3477 3.50414C33.8641 3.31312 38.1081 5.40818 38.0361 8.14086C35.1571 4.6999 32.9948 5.30083 31.2939 3.95629L31.3477 3.50414Z" fill="url(#paint0_linear_0_4)"/>
<path id="Vector" d="M72.3908 8.45758C71.8045 8.77962 71.1052 8.65229 70.5232 8.64937L66.1179 8.64484L49.6467 8.64192C48.0056 8.6416 46.3558 8.89528 44.7158 8.45305C44.6848 8.44462 44.3829 8.20198 44.3234 8.74786C44.3096 10.0305 44.3316 10.4439 44.3796 11.6053L44.3829 11.6177C44.4647 11.9002 45.0575 11.0299 45.3934 10.9807C46.4891 11.2658 47.5893 11.0264 48.6854 11.0277L67.539 11.0303L72.5541 11.5098C72.7082 11.5098 72.7773 11.4132 72.8193 9.63265C72.903 7.85207 72.7305 8.38227 72.3908 8.45758Z" fill="url(#paint1_linear_0_4)"/>
</g>
<defs>
<linearGradient id="paint0_linear_0_4" x1="0" y1="9.99979" x2="38.3193" y2="9.99979" gradientUnits="userSpaceOnUse">
<stop stop-color="#D9FBFF"/>
<stop offset="1" stop-color="#829699"/>
</linearGradient>
<linearGradient id="paint1_linear_0_4" x1="72.8402" y1="9.99979" x2="44.3193" y2="9.99979" gradientUnits="userSpaceOnUse">
<stop stop-color="#829699" stop-opacity="0"/>
<stop offset="1" stop-color="#D9FBFF"/>
</linearGradient>
</defs>
</svg>
