<svg preserveAspectRatio="xMidYMid meet" width="100%" height="100%" overflow="visible" style="display: block;" viewBox="0 0 75 45" fill="none" xmlns="http://www.w3.org/2000/svg">
<g id="Vector">
<path d="M22.5 22.5C22.5 23.4946 22.8951 24.4484 23.5984 25.1516C24.3016 25.8549 25.2554 26.25 26.25 26.25H48.75C49.7446 26.25 50.6984 25.8549 51.4016 25.1516C52.1049 24.4484 52.5 23.4946 52.5 22.5C52.5 21.5054 52.1049 20.5516 51.4016 19.8484C50.6984 19.1451 49.7446 18.75 48.75 18.75H26.25C25.2554 18.75 24.3016 19.1451 23.5984 19.8484C22.8951 20.5516 22.5 21.5054 22.5 22.5ZM30 37.5H22.5C18.5218 37.5 14.7064 35.9196 11.8934 33.1066C9.08035 30.2936 7.5 26.4782 7.5 22.5C7.5 18.5218 9.08035 14.7064 11.8934 11.8934C14.7064 9.08035 18.5218 7.5 22.5 7.5H30C30.9946 7.5 31.9484 7.10491 32.6516 6.40165C33.3549 5.69839 33.75 4.74456 33.75 3.75C33.75 2.75544 33.3549 1.80161 32.6516 1.09835C31.9484 0.395089 30.9946 0 30 0H22.5C16.5326 0 10.8097 2.37053 6.5901 6.5901C2.37053 10.8097 0 16.5326 0 22.5C0 28.4674 2.37053 34.1903 6.5901 38.4099C10.8097 42.6295 16.5326 45 22.5 45H30C30.9946 45 31.9484 44.6049 32.6516 43.9017C33.3549 43.1984 33.75 42.2446 33.75 41.25C33.75 40.2554 33.3549 39.3016 32.6516 38.5983C31.9484 37.8951 30.9946 37.5 30 37.5ZM52.5 0H45C44.0054 0 43.0516 0.395089 42.3484 1.09835C41.6451 1.80161 41.25 2.75544 41.25 3.75C41.25 4.74456 41.6451 5.69839 42.3484 6.40165C43.0516 7.10491 44.0054 7.5 45 7.5H52.5C56.4782 7.5 60.2936 9.08035 63.1066 11.8934C65.9196 14.7064 67.5 18.5218 67.5 22.5C67.5 26.4782 65.9196 30.2936 63.1066 33.1066C60.2936 35.9196 56.4782 37.5 52.5 37.5H45C44.0054 37.5 43.0516 37.8951 42.3484 38.5983C41.6451 39.3016 41.25 40.2554 41.25 41.25C41.25 42.2446 41.6451 43.1984 42.3484 43.9017C43.0516 44.6049 44.0054 45 45 45H52.5C58.4674 45 64.1903 42.6295 68.4099 38.4099C72.6295 34.1903 75 28.4674 75 22.5C75 16.5326 72.6295 10.8097 68.4099 6.5901C64.1903 2.37053 58.4674 0 52.5 0Z" fill="var(--fill-0, white)"/>
<path d="M22.5 22.5C22.5 23.4946 22.8951 24.4484 23.5984 25.1516C24.3016 25.8549 25.2554 26.25 26.25 26.25H48.75C49.7446 26.25 50.6984 25.8549 51.4016 25.1516C52.1049 24.4484 52.5 23.4946 52.5 22.5C52.5 21.5054 52.1049 20.5516 51.4016 19.8484C50.6984 19.1451 49.7446 18.75 48.75 18.75H26.25C25.2554 18.75 24.3016 19.1451 23.5984 19.8484C22.8951 20.5516 22.5 21.5054 22.5 22.5ZM30 37.5H22.5C18.5218 37.5 14.7064 35.9196 11.8934 33.1066C9.08035 30.2936 7.5 26.4782 7.5 22.5C7.5 18.5218 9.08035 14.7064 11.8934 11.8934C14.7064 9.08035 18.5218 7.5 22.5 7.5H30C30.9946 7.5 31.9484 7.10491 32.6516 6.40165C33.3549 5.69839 33.75 4.74456 33.75 3.75C33.75 2.75544 33.3549 1.80161 32.6516 1.09835C31.9484 0.395089 30.9946 0 30 0H22.5C16.5326 0 10.8097 2.37053 6.5901 6.5901C2.37053 10.8097 0 16.5326 0 22.5C0 28.4674 2.37053 34.1903 6.5901 38.4099C10.8097 42.6295 16.5326 45 22.5 45H30C30.9946 45 31.9484 44.6049 32.6516 43.9017C33.3549 43.1984 33.75 42.2446 33.75 41.25C33.75 40.2554 33.3549 39.3016 32.6516 38.5983C31.9484 37.8951 30.9946 37.5 30 37.5ZM52.5 0H45C44.0054 0 43.0516 0.395089 42.3484 1.09835C41.6451 1.80161 41.25 2.75544 41.25 3.75C41.25 4.74456 41.6451 5.69839 42.3484 6.40165C43.0516 7.10491 44.0054 7.5 45 7.5H52.5C56.4782 7.5 60.2936 9.08035 63.1066 11.8934C65.9196 14.7064 67.5 18.5218 67.5 22.5C67.5 26.4782 65.9196 30.2936 63.1066 33.1066C60.2936 35.9196 56.4782 37.5 52.5 37.5H45C44.0054 37.5 43.0516 37.8951 42.3484 38.5983C41.6451 39.3016 41.25 40.2554 41.25 41.25C41.25 42.2446 41.6451 43.1984 42.3484 43.9017C43.0516 44.6049 44.0054 45 45 45H52.5C58.4674 45 64.1903 42.6295 68.4099 38.4099C72.6295 34.1903 75 28.4674 75 22.5C75 16.5326 72.6295 10.8097 68.4099 6.5901C64.1903 2.37053 58.4674 0 52.5 0Z" fill="url(#paint0_linear_0_5)"/>
</g>
<defs>
<linearGradient id="paint0_linear_0_5" x1="37.5" y1="0" x2="37.5" y2="45" gradientUnits="userSpaceOnUse">
<stop stop-color="#C7D5FF"/>
<stop offset="0.475962" stop-color="#FFB6E8"/>
<stop offset="1" stop-color="#C58CFF"/>
</linearGradient>
</defs>
</svg>
